Coordinates
version=1
nRows=9
nColumns=24
inDegrees=yes

Units are S.I. units (second, meters, Newtons, ...)
Angles are in degrees.

endheader
time	pelvis_tilt	pelvis_list	pelvis_rotation	pelvis_tx	pelvis_ty	pelvis_tz	hip_flexion_r	hip_adduction_r	hip_rotation_r	knee_angle_r	ankle_angle_r	subtalar_angle_r	mtp_angle_r	hip_flexion_l	hip_adduction_l	hip_rotation_l	knee_angle_l	ankle_angle_l	subtalar_angle_l	mtp_angle_l	lumbar_extension	lumbar_bending	lumbar_rotation
      0.47900000	      4.36626670	     -0.17451920	     -1.27760320	     -0.78551292	      1.01709760	      0.30006545	     11.04868119	      1.52980643	     -2.69328479	      2.70300692	      1.75538954	     -5.02135660	      0.36652900	    -18.20191512	      4.78060381	     10.92163256	     -9.34721867	      8.85580754	    -14.94685675	     -0.28612897	    -17.58553059	      9.50729778	     -7.19454339
      0.48316667	      4.42459746	     -0.22633708	     -1.32115444	     -0.77989076	      1.01644836	      0.30048624	     10.87867407	      1.65678630	     -2.37152019	      2.82881689	      1.57294562	     -4.93786384	      0.74215211	    -18.45775421	      4.72663441	     10.70317596	     -9.66413594	      8.99432608	    -14.61352868	     -0.62941357	    -17.66392376	      9.54695330	     -6.88962871
      0.48733333	      4.38113755	     -0.28783031	     -1.33399665	     -0.77422834	      1.01570420	      0.30089395	     10.80256285	      1.79222907	     -1.98931905	      2.91110581	      1.23969781	     -5.09069229	      1.00563557	    -18.56914815	      4.65272141	     10.49102355	    -10.05047591	      9.05035570	    -14.28452453	     -0.80582675	    -17.58952607	      9.61219364	     -6.81975341
      0.49150000	      4.39342158	     -0.36849295	     -1.36937719	     -0.76856020	      1.01504514	      0.30132591	     10.68411983	      1.94708469	     -1.58799785	      2.88759241	      0.90051650	     -5.23773188	      1.23261447	    -18.73249004	      4.56938629	     10.24787979	    -10.45489251	      9.12894511	    -13.95910621	     -0.89639669	    -17.59612871	      9.69761701	     -6.66768963
      0.49566667	      4.36720878	     -0.45910011	     -1.41336748	     -0.76288752	      1.01434923	      0.30177942	     10.64740407	      2.11323823	     -1.21622936	      2.72089702	      0.51640571	     -5.39484749	      3.31328320	    -18.81956111	      4.47454397	      9.92500976	    -10.93602510	      9.32440009	    -13.43887074	     -1.19414173	    -17.54304074	      9.80034328	     -6.65922270
      0.49983333	      4.40114136	     -0.58736702	     -1.45695945	     -0.75716913	      1.01376937	      0.30222993	     10.50035600	      2.31870566	     -0.72436738	      2.58179152	      0.06892824	     -5.81914745	      3.39837979	    -18.99642564	      4.35411025	      9.72262313	    -11.36437627	      9.29756991	    -13.29507709	     -1.15605950	    -17.58689706	      9.91543473	     -6.36493451
      0.50400000	      4.42319231	     -0.71847366	     -1.50935908	     -0.75144924	      1.01319722	      0.30270239	     10.39851412	      2.52877354	     -0.25810341	      2.32554880	     -0.38673575	     -6.23769097	      3.49517384	    -19.11356388	      4.22825377	      9.40574085	    -11.88560063	      9.34547341	    -12.92769960	     -1.05789097	    -17.59814057	     10.06043679	     -6.21170252
      0.50816667	      4.42362044	     -0.87539923	     -1.56379775	     -0.74569917	      1.01260829	      0.30318682	     10.33366228	      2.76666082	      0.20420198	      1.99058415	     -0.84771620	     -6.68483613	      3.60250352	    -19.18028840	      4.07708135	      9.06234087	    -12.46805448	      9.39195408	    -12.55991971	     -0.89542140	    -17.59240251	     10.22164550	     -6.03336885
      0.51233333	      4.44890790	     -1.03496728	     -1.62389671	     -0.73994113	      1.01209475	      0.30366982	     10.25555669	      3.00717899	      0.65300004	      1.58993340	     -1.32542707	     -7.17642692	      3.70951794	    -19.24969008	      3.92757066	      8.70183041	    -13.08523566	      9.40141585	    -12.19682344	     -0.67699814	    -17.60921556	     10.39918867	     -5.85581778
